<svg xmlns="http://www.w3.org/2000/svg" xmlns:xlink="http://www.w3.org/1999/xlink" width="142" height="140" preserveAspectRatio="none"><svg id="flags--flag-ar" width="22" height="15" x="120" y="60" viewBox="0 0 22 15"><g fill="none"><path fill="#4A8656" d="M21.24 15a.75.75 0 0 0 .76-.75V.75a.75.75 0 0 0-.76-.75H.76A.75.75 0 0 0 0 .75v13.5c0 .41.34.75.76.75h20.48z"/><path fill="#F7C608" d="M11.04 11.06A3.75 3.75 0 0 1 7.3 7.31a3.75 3.75 0 0 1 3.74-3.75 3.75 3.75 0 0 1 3.75 3.75 3.75 3.75 0 0 1-3.75 3.75zm0-.39a3.36 3.36 0 0 0 3.35-3.36 3.36 3.36 0 0 0-3.35-3.36 3.36 3.36 0 0 0-3.35 3.36 3.36 3.36 0 0 0 3.35 3.36z"/><g fill="#FFF"><path d="M16.96 7.55a.03.03 0 0 0-.02 0h-.03l-.07.02a1.45 1.45 0 0 0-.82.84c.05-.26.06-.35.07-.64v-.13a.5.5 0 0 1 .07-.13.44.44 0 0 0 .23-.1.73.73 0 0 0 .17-.23c.16-.31.23-.66.23-1.03a.92.92 0 0 0 0-.1 2.09 2.09 0 0 1-.01-.06.03.03 0 0 0-.05-.02.5.5 0 0 1-.03.02 1.54 1.54 0 0 0-.63 1.12V7l-.04-.38-.01-.09c-.01-.05-.02-.1 0-.17v-.03a.35.35 0 0 1 .11-.14.72.72 0 0 0 .2-.33c.07-.21.07-.43.06-.59a1.85 1.85 0 0 0-.07-.54 1.02 1.02 0 0 0-.04-.1.03.03 0 0 0-.02-.01.03.03 0 0 0-.03 0l-.04.07a1.43 1.43 0 0 0-.33.96l.01.2a5.59 5.59 0 0 0-.2-.58.04.04 0 0 1 0-.02V5.1l.05-.05.06-.08a.72.72 0 0 0 .1-.38c0-.19-.03-.38-.1-.61a1.57 1.57 0 0 0-.18-.45.44.44 0 0 0-.03-.04l-.02-.01a.03.03 0 0 0-.03.01c-.12.22-.18.45-.18.7 0 .22.03.41.07.56a5.46 5.46 0 0 0-.35-.57h-.01a3.43 3.43 0 0 1-.02-.15V4a1 1 0 0 1 .04-.04.5.5 0 0 0 .05-.1.72.72 0 0 0 .03-.37 1.65 1.65 0 0 0-.5-.94h-.01l-.04-.04a.03.03 0 0 0-.02 0 .03.03 0 0 0-.02.02v.02a1.9 1.9 0 0 0-.01.66c.04.23.1.43.22.6a4.55 4.55 0 0 0-.5-.52.48.48 0 0 0-.09-.33.87.87 0 0 0-.38-.31l-.3-.12-.15-.06c-.05-.02-.07-.02-.08 0v.04c.06.2.14.37.24.5a.9.9 0 0 0 .68.35.04.04 0 0 1 .02 0l.1.08.22.23a.68.68 0 0 0-.4-.1l-.25.03-.07.01-.15.03c-.02 0-.06.01-.07.03a.02.02 0 0 0 0 .03.97.97 0 0 0 .47.36.76.76 0 0 0 .6-.02.2.2 0 0 1 .1-.02h.05l.03.01c.11.15.22.3.32.47a.7.7 0 0 0-.34-.17 2.11 2.11 0 0 0-.4-.04h-.04l-.12-.01h-.07a.03.03 0 0 0-.02 0 .03.03 0 0 0 0 .03.24.24 0 0 0 0 .03c.14.22.3.38.5.48a.75.75 0 0 0 .52.07.29.29 0 0 1 .07 0c.07 0 .12.02.13.04.1.2.18.4.25.6a.81.81 0 0 0-.32-.25c-.13-.07-.27-.12-.4-.18l-.18-.07a.03.03 0 0 0-.04.02c0 .02.2.56.48.77.11.1.26.18.43.18a.2.2 0 0 1 .16.06.06.06 0 0 0 .02.02l.03.04c.05.25.1.5.12.75a1.12 1.12 0 0 0-.36-.52l-.26-.21a3.72 3.72 0 0 1-.12-.1 1.07 1.07 0 0 1-.03-.02L15.14 6a.03.03 0 0 0-.04.02v.16c.04.29.13.53.27.74.1.13.23.29.43.36.05.02.1.05.13.1a.2.2 0 0 1 .04.14c0 .23-.02.45-.05.67a.92.92 0 0 0-.04-.19 1.45 1.45 0 0 0-.21-.4l-.26-.35-.1-.14a.04.04 0 0 0-.02-.01.03.03 0 0 0-.04.01 1.62 1.62 0 0 0 .1.98c.07.14.15.3.3.43.08.05.13.13.16.2v.04c-.06.27-.14.53-.24.77a.98.98 0 0 0-.01-.4 3.56 3.56 0 0 0-.18-.57l-.02-.05-.1-.23a.03.03 0 0 0-.02-.02c-.01 0-.02 0-.03.02v.02l-.02.02c-.13.3-.18.6-.14.91.04.22.09.38.18.51a.5.5 0 0 1 .1.24l-.01.06a4.3 4.3 0 0 1-.38.55c.1-.18.1-.38.1-.55L15 9.62V9.6a15.78 15.78 0 0 1-.04-.26V9.3a.03.03 0 0 0-.02-.02c-.01 0-.04 0-.06.04a1.5 1.5 0 0 0-.35.74c-.05.29-.02.53.07.75a.07.07 0 0 1 0 .02v.12a.04.04 0 0 1-.01.02c-.19.18-.4.34-.62.47a.82.82 0 0 0 .23-.37 3.62 3.62 0 0 0 .11-.53v-.02l.03-.18.01-.07a.03.03 0 0 0 0-.03.03.03 0 0 0-.03 0h-.01a1.23 1.23 0 0 0-.7 1.17.56.56 0 0 1-.01.21.03.03 0 0 1-.01.01 4 4 0 0 1-.58.2.03.03 0 0 0-.02.04l.06.08a.03.03 0 0 0 .03.01c.15-.04.3-.08.45-.14a.05.05 0 0 1 .03 0 .2.2 0 0 1 .1.02h.01a.6.6 0 0 0 .43.32 1.24 1.24 0 0 0 .3.03h.14c.18-.02.34-.06.47-.13a.44.44 0 0 0 .17-.12.03.03 0 0 0 0-.04 1.46 1.46 0 0 0-.43-.27 1.1 1.1 0 0 0-.72-.05c.19-.11.37-.24.54-.4l.11-.01a.5.5 0 0 0 .44.17c.18 0 .36-.06.54-.15.13-.07.27-.15.38-.27a.93.93 0 0 0 .06-.08l.03-.04a.03.03 0 0 0 0-.02.03.03 0 0 0 0-.02 1.25 1.25 0 0 0-.95-.08.9.9 0 0 0-.25.14c.15-.18.29-.37.42-.58v-.01a1.01 1.01 0 0 1 .04-.02l.06-.04h.04a.26.26 0 0 0 .08.03.64.64 0 0 0 .44-.06c.15-.07.26-.18.36-.28.14-.16.24-.3.3-.44a.88.88 0 0 0 .04-.14.03.03 0 0 0-.02-.03h-.01c-.06 0-.59 0-.9.3a1.59 1.59 0 0 0-.17.21c.12-.26.22-.53.3-.8v-.02l.09-.11h.15a.56.56 0 0 0 .32-.18 1.93 1.93 0 0 0 .5-1.02 1.64 1.64 0 0 1 0-.06v-.02z"/><path d="M13 11.7c.09.15.2.48.32.97.04.1-.01.2-.14.28-.12.08-.71 0-1.78-.24a.55.55 0 0 1-.63 0c-1.04.24-1.62.31-1.74.24-.13-.09-.18-.18-.14-.28.12-.5.23-.82.32-.97.09-.15.21-.21.38-.17l1.03.43a.55.55 0 0 1 .93.02l1.07-.45c.17-.04.3.02.38.17z"/><path d="M9.19 11.82a3.33 3.33 0 0 1-.58-.19.03.03 0 0 1-.01-.01.56.56 0 0 1-.02-.2 1.23 1.23 0 0 0-.69-1.18.03.03 0 0 0-.04 0 .03.03 0 0 0 0 .02v.08l.03.18v.02c.03.17.06.35.12.53.04.15.12.28.23.37a3.32 3.32 0 0 1-.62-.47.04.04 0 0 1-.01-.02v-.14c.09-.22.11-.46.07-.75a1.5 1.5 0 0 0-.35-.74c-.02-.03-.04-.04-.06-.04a.03.03 0 0 0-.02.02v.05a15.86 15.86 0 0 1-.04.26l-.04.43c0 .17 0 .37.1.55a4.3 4.3 0 0 1-.38-.55l-.01-.06a.5.5 0 0 1 .1-.24 1.18 1.18 0 0 0 .17-.5c.05-.31 0-.62-.13-.92L7 8.29l-.01-.01a.03.03 0 0 0-.06 0l-.1.24-.01.05c-.07.16-.14.36-.18.56a.98.98 0 0 0-.01.4 5.08 5.08 0 0 1-.25-.77v-.03a.48.48 0 0 1 .16-.21 1.06 1.06 0 0 0 .3-.43 1.62 1.62 0 0 0 .11-.97.03.03 0 0 0-.02-.02.03.03 0 0 0-.02 0 .04.04 0 0 0-.02.01l-.1.13v.01l-.26.35a1.45 1.45 0 0 0-.22.4.92.92 0 0 0-.04.19 5.92 5.92 0 0 1-.05-.67c0-.05 0-.1.05-.14a.27.27 0 0 1 .12-.1c.2-.07.34-.23.43-.36a1.53 1.53 0 0 0 .27-.84v-.06A.03.03 0 0 0 7.06 6l-.02.02-.03.02-.12.1-.26.2a1.12 1.12 0 0 0-.37.53 5.77 5.77 0 0 1 .13-.75c0-.03.01-.04.03-.04a.06.06 0 0 0 .02-.02c.04-.05.1-.06.15-.06.18 0 .32-.1.44-.18.28-.21.48-.75.48-.77a.03.03 0 0 0-.04-.03l-.18.08-.4.17a.81.81 0 0 0-.33.26l.25-.6a.2.2 0 0 1 .14-.05.29.29 0 0 1 .07.01.75.75 0 0 0 .52-.08c.2-.1.36-.25.5-.48a.23.23 0 0 0 0-.02.03.03 0 0 0 0-.03.03.03 0 0 0-.03-.01h-.06l-.13.01h-.04c-.13.01-.26.02-.4.05a.7.7 0 0 0-.33.17 5.02 5.02 0 0 1 .34-.48.26.26 0 0 1 .06 0c.04 0 .07 0 .1.02a.76.76 0 0 0 .6.02.97.97 0 0 0 .47-.37.02.02 0 0 0 0-.02 3.97 3.97 0 0 0-.22-.06 8.95 8.95 0 0 1-.08 0 2.45 2.45 0 0 0-.25-.04.68.68 0 0 0-.4.1 4.02 4.02 0 0 1 .32-.3.04.04 0 0 1 .02-.01.9.9 0 0 0 .68-.36c.1-.13.19-.28.25-.49v-.05c-.02-.01-.04 0-.09.01l-.14.06-.3.11a.87.87 0 0 0-.39.32.48.48 0 0 0-.08.34 4.56 4.56 0 0 0-.5.5c.1-.17.18-.36.22-.59a1.9 1.9 0 0 0 0-.66l-.01-.02a.03.03 0 0 0-.02-.02.03.03 0 0 0-.03 0 2.15 2.15 0 0 1-.03.03l-.01.01a1.65 1.65 0 0 0-.5.94.72.72 0 0 0 .02.37.5.5 0 0 0 .06.1.4.4 0 0 1 .03.04v.01l-.01.15h-.01l-.36.57c.04-.14.08-.33.08-.54a1.45 1.45 0 0 0-.19-.71l-.02-.01a.03.03 0 0 0-.03 0 1.57 1.57 0 0 0-.2.5c-.07.23-.1.42-.1.6a.65.65 0 0 0 .16.47l.04.05v.16a.04.04 0 0 1 0 .02 5.6 5.6 0 0 0-.2.57l.02-.2A1.43 1.43 0 0 0 6 4.7l-.05-.06a.03.03 0 0 0-.02-.01.03.03 0 0 0-.03.02 2.44 2.44 0 0 1-.03.09 1.85 1.85 0 0 0-.08.54c0 .16 0 .38.06.59.06.2.18.31.2.33.06.05.1.1.11.14a.85.85 0 0 0 .01.03c.02.06 0 .11 0 .17a.7.7 0 0 0-.02.1 27.57 27.57 0 0 1-.03.37v.11a1.53 1.53 0 0 0-.67-1.14.03.03 0 0 0-.04.02 2.37 2.37 0 0 1 0 .05l-.02.11c0 .37.08.71.24 1.03.04.08.1.16.17.22a.44.44 0 0 0 .22.11h.01l.02.03a.5.5 0 0 1 .04.1v.13c.01.28.03.38.07.64a1.45 1.45 0 0 0-.82-.84l-.06-.02a2.51 2.51 0 0 1-.03 0 .03.03 0 0 0-.04.02v.06l.02.12c.1.37.26.66.49.9.1.1.2.15.31.17a.58.58 0 0 0 .13 0h.02l.09.12v.01c.09.28.19.55.31.81a1.59 1.59 0 0 0-.18-.2c-.3-.3-.83-.32-.9-.32a.03.03 0 0 0-.02.04l.01.04.03.1c.06.14.15.28.3.44.1.1.2.21.35.28a.64.64 0 0 0 .45.05.26.26 0 0 0 .08-.03h.03a.67.67 0 0 0 .1.07 4.48 4.48 0 0 0 .43.59.9.9 0 0 0-.26-.14 1.25 1.25 0 0 0-.94.08.03.03 0 0 0 0 .04l.02.04.07.08c.1.12.24.2.37.27a1.27 1.27 0 0 0 .58.15.5.5 0 0 0 .4-.17.8.8 0 0 1 .12.02c.17.15.35.28.53.39a1.1 1.1 0 0 0-.71.05c-.15.06-.3.15-.43.27a.03.03 0 0 0 0 .04.44.44 0 0 0 .16.12c.14.07.3.1.47.13a1.55 1.55 0 0 0 .3 0l.14-.03a.6.6 0 0 0 .43-.32.04.04 0 0 1 .02 0 .94.94 0 0 1 .1-.02.06.06 0 0 1 .03 0 3.3 3.3 0 0 0 .45.14l.03-.01a.46.46 0 0 1 .05-.08.03.03 0 0 0-.01-.05z"/></g><path fill="#FFF" d="M12.98 5.12a2.94 2.94 0 0 0-.26-.2m-3.39 0a2.94 2.94 0 0 0-.1.08 2.38 2.38 0 0 0 1.83 3.9 2.38 2.38 0 0 0 1.92-3.78c.63.52.98 1.28.98 2.18a2.93 2.93 0 0 1-2.92 2.93A2.93 2.93 0 0 1 8.1 7.3c0-.93.44-1.77 1.12-2.3"/></g></svg><svg id="flags--flag-br" width="22" height="15" x="120" viewBox="0 0 22 15"><g fill="none"><path fill="#4C8056" d="M17.07 14.98h4.17a.75.75 0 0 0 .76-.75V.77a.75.75 0 0 0-.76-.75H.76A.75.75 0 0 0 0 .77v13.46c0 .42.34.75.76.75h16.3z"/><path fill="#F3D55B" d="M3.41 7.13 11 11.99l7.59-4.86L11 2.26z"/><path fill="#3B97D3" d="M13.65 7.13a2.54 2.54 0 0 1-.5 1.52A2.65 2.65 0 0 1 11 9.75a2.7 2.7 0 0 1-1.88-.77 2.6 2.6 0 0 1-.78-1.85v-.06c.01-.3.07-.6.18-.88a2.66 2.66 0 0 1 2.96-1.64 2.63 2.63 0 0 1 2.17 2.58z"/><path fill="#ECF0F1" d="M13.15 8.65a2.53 2.53 0 0 1-.64.63l-.03-.21a2.8 2.8 0 0 0-1.46-1.98 2.88 2.88 0 0 0-2.48-.1l-.2.08c.01-.3.07-.6.18-.88a3.58 3.58 0 0 1 4.63 2.46z"/></g></svg><svg id="flags--flag-de" width="22" height="15" x="120" y="75" viewBox="0 0 22 15"><g fill="none"><path fill="#2C2F38" d="M17.07 15h4.17a.75.75 0 0 0 .76-.75V.75a.75.75 0 0 0-.76-.75H.76A.75.75 0 0 0 0 .75v13.5c0 .41.34.75.76.75h16.3z"/><path fill="#F0C419" d="M22 10v4.23a.77.77 0 0 1-.76.77H.76a.77.77 0 0 1-.76-.77V10h22z"/><path fill="#C03A2B" d="M0 5h22v5H0z"/></g></svg><svg id="flags--flag-en" width="22" height="15" x="66" y="109" viewBox="0 0 22 15"><g fill="none"><path fill="#C03A2B" d="M22 .85v13.17a1 1 0 0 1-1 1H1a1 1 0 0 1-1-1V.85C0 .4.34.02.76.02h20.48c.42 0 .76.37.76.83z"/><path fill="#285680" d="M.79 0H11v9H0V.9C0 .4.35 0 .79 0z"/><path fill="#ECF0F1" d="m1.5 1 .15.31.35.05-.25.25.06.34-.31-.16-.3.16.05-.34L1 1.36l.34-.05zm1.33 0 .16.31.34.05-.25.25.06.34-.3-.16-.32.16.06-.34-.25-.25.35-.05zm1.34 0 .15.31.35.05-.25.25.06.34-.31-.16-.31.16.06-.34-.25-.25.34-.05zM5.5 1l.15.31.35.05-.25.25.06.34-.31-.16-.3.16.05-.34L5 1.36l.34-.05zm1.33 0 .16.31.34.05-.25.25.06.34-.3-.16-.32.16.06-.34-.25-.25.35-.05zm1.34 0 .15.31.35.05-.25.25.06.34-.31-.16-.31.16.06-.34-.25-.25.34-.05zM9.5 1l.15.31.35.05-.25.25.06.34-.31-.16-.3.16.05-.34L9 1.36l.34-.05zM2.25 2.51l.15.32.35.05-.25.24.06.34-.31-.16-.3.16.05-.34-.25-.24.34-.05zm1.33 0 .16.32.34.05-.25.24.06.34-.3-.16-.32.16.06-.34-.25-.25.35-.05zm1.34 0 .15.32.35.05-.25.24.06.34-.31-.16-.31.16.06-.34-.25-.25.34-.05zm1.33 0 .15.32.35.05-.25.24.06.34-.31-.16-.3.16.05-.34-.25-.24.34-.05zm1.33 0 .16.32.34.05-.25.24.06.34-.3-.16-.32.16.06-.34-.25-.25.35-.05zm1.34 0 .15.32.35.05-.25.24.06.34-.31-.16-.31.16.06-.34-.25-.25.34-.05zM1.5 4.02l.15.32.35.05-.25.24.06.35-.31-.17-.3.17.05-.35L1 4.4l.34-.05zm1.33 0 .16.32.34.05-.25.24.06.35-.3-.17-.32.17.06-.35-.25-.24.35-.05zm1.34 0 .15.32.35.05-.25.24.06.35-.31-.17-.31.17.06-.35-.25-.24.34-.05zm1.33 0 .15.32.35.05-.25.24.06.35-.31-.17-.3.17.05-.35L5 4.4l.34-.05zm1.33 0 .16.32.34.05-.25.24.06.35-.3-.17-.32.17.06-.35-.25-.24.35-.05zm1.34 0 .15.32.35.05-.25.24.06.35-.31-.17-.31.17.06-.35-.25-.24.34-.05zm1.33 0 .15.32.35.05-.25.24.06.35-.31-.17-.3.17.05-.35L9 4.4l.34-.05zm-8 3.03.15.31.35.05-.25.25.06.34-.31-.16-.3.16.05-.34L1 7.4l.34-.05zm1.33 0 .16.31.34.05-.25.25.06.34-.3-.16-.32.16.06-.34-.25-.25.35-.05zm1.34 0 .15.31.35.05-.25.25.06.34-.31-.16-.31.16.06-.34-.25-.25.34-.05zm1.33 0 .15.31.35.05-.25.25.06.34-.31-.16-.3.16.05-.34L5 7.4l.34-.05zm1.33 0 .16.31.34.05-.25.25.06.34-.3-.16-.32.16.06-.34-.25-.25.35-.05zm1.34 0 .15.31.35.05-.25.25.06.34-.31-.16-.31.16.06-.34-.25-.25.34-.05zm1.33 0 .15.31.35.05-.25.25.06.34-.31-.16-.3.16.05-.34L9 7.4l.34-.05zM2.25 5.54l.15.31.35.05-.25.24.06.35-.31-.16-.3.16.05-.35-.25-.24.34-.05zm1.33 0 .16.31.34.05-.25.24.06.35-.3-.16-.32.16.06-.35-.25-.24.35-.05zm1.34 0 .15.31.35.05-.25.24.06.35-.31-.16-.31.16.06-.35-.25-.24.34-.05zm1.33 0 .15.31.35.05-.25.24.06.35-.31-.16-.3.16.05-.35-.25-.24.34-.05zm1.33 0 .16.31.34.05-.25.24.06.35-.3-.16-.32.16.06-.35-.25-.24.35-.05zm1.34 0 .15.31.35.05-.25.24.06.35-.31-.16-.31.16.06-.35-.25-.24.34-.05z"/><path fill="#E6E7E8" d="M11 2h11V1H11zm0 1h11v1H11zm0 2h11v1H11zm0 2h11v1H11zM0 9h22v1H0zm0 2h22v1H0zm0 2h22v1H0z"/></g></svg><svg id="flags--flag-es" width="22" height="15" y="109" viewBox="0 0 22 15"><g fill="none"><path fill="#C03A2B" d="M17.07 14.98h4.17a.75.75 0 0 0 .76-.75V.77a.75.75 0 0 0-.76-.75H.76A.75.75 0 0 0 0 .77v13.46c0 .42.34.75.76.75h16.3z"/><path fill="#F0C419" d="M14.81 12.36H22V2.64H0v9.72h7.19z"/><path fill="#FFF" d="M5.31 6.75h1.52v1.5H5.3z"/><path fill="#D75E72" d="M3.8 6.75h1.5v1.5H3.79z"/><path fill="#F0C419" d="M6.83 8.25V9c0 .3-.12.58-.33.79-.22.21-.5.33-.81.33h-.76c-.3 0-.6-.12-.8-.33a1.11 1.11 0 0 1-.34-.8v-.74h3.04z"/><path fill="#D75E72" d="M6.83 8.25V9c0 .62-.26 1.12-.57 1.12H5.3V8.25h1.52z"/><path fill="#F0C419" d="M5.31 6v.75H3.79a.38.38 0 0 1-.38-.37V6a.76.76 0 0 1 .76-.74h.38a.76.76 0 0 1 .76.74zm1.9 0v.38c0 .2-.17.37-.38.37H5.3V6a.76.76 0 0 1 .76-.74h.38A.76.76 0 0 1 7.2 6z"/><path fill="#FFF" d="M2.65 10.5H1.9a.38.38 0 0 1-.38-.38c0-.2.17-.38.38-.38V6.75c0-.2.17-.37.38-.37.2 0 .38.17.38.37v3c.2 0 .37.16.37.37 0 .2-.17.37-.38.37zm6.07 0h-.75a.38.38 0 0 1-.38-.38c0-.2.17-.38.38-.38V6.75c0-.2.17-.37.38-.37.2 0 .38.17.38.37v3c.2 0 .37.16.37.37 0 .2-.17.37-.38.37z"/><path fill="#C03A2B" d="M6.45 4.88h-.38c-.13 0-.26.03-.38.07v-.44a.38.38 0 0 0-.38-.38.38.38 0 0 0-.38.38v.44a1.14 1.14 0 0 0-.38-.07h-.38c-.63 0-1.13.5-1.14 1.12v.38c0 .26.15.5.38.64V9c0 .82.68 1.5 1.52 1.5h.76A1.5 1.5 0 0 0 7.21 9V7.02a.74.74 0 0 0 .38-.64V6c0-.62-.51-1.12-1.14-1.12zm-.38.75h.38c.2 0 .38.17.38.37v.38H5.69V6c0-.2.17-.37.38-.37zm.38 2.24h-.76v-.74h.76v.74zm-1.52 0h-.76v-.74h.76v.74zM3.8 6c0-.2.17-.37.38-.37h.38c.21 0 .38.17.38.37v.38H3.8V6zm.38 3v-.38h.76v1.12A.75.75 0 0 1 4.17 9zm1.52.74V8.62h.76V9c0 .4-.34.74-.76.74z"/></g></svg><svg id="flags--flag-fr" width="22" height="15" x="25" y="69" viewBox="0 0 22 15"><g fill="none"><path fill="#285680" d="M17.07 14.98h4.17a.75.75 0 0 0 .76-.75V.77a.75.75 0 0 0-.76-.75H.76A.75.75 0 0 0 0 .77v13.46c0 .42.34.75.76.75h16.3z"/><path fill="#C03A2B" d="M22 .77v13.46a.76.76 0 0 1-.76.75h-6.07V.02h6.07a.76.76 0 0 1 .76.75z"/><path fill="#E6E7E8" d="M6.83.02h8.34v14.96H6.83z"/></g></svg><svg id="flags--flag-it" width="22" height="15" x="47" y="69" viewBox="0 0 22 15"><g fill="none"><path fill="#C03A2B" d="M17.07 14.98h4.17a.75.75 0 0 0 .76-.75V.77a.75.75 0 0 0-.76-.75H.76A.75.75 0 0 0 0 .77v13.46c0 .42.34.75.76.75h16.3z"/><path fill="#4C8056" d="M6.83.02v14.96H.76a.76.76 0 0 1-.76-.75V.77A.76.76 0 0 1 .76.02h6.07z"/><path fill="#E6E7E8" d="M6.83.02h8.34v14.96H6.83z"/></g></svg><svg id="flags--flag-jp" width="22" height="15" x="69" y="69" viewBox="0 0 22 15"><g fill="none"><path fill="#E6E7E8" d="M17.07 14.96h4.17a.75.75 0 0 0 .76-.75V.75a.75.75 0 0 0-.76-.75H.76A.75.75 0 0 0 0 .75V14.2c0 .42.34.75.76.75h16.3z"/><ellipse cx="11.06" cy="7.5" fill="#C03A2B" rx="4.06" ry="4"/></g></svg><svg id="flags--flag-ko" width="22" height="15" x="91" y="69" viewBox="0 0 22 15"><g fill="none" fill-rule="evenodd"><path fill="#E6E7E8" fill-rule="nonzero" d="M17.07 14.96h4.17a.75.75 0 0 0 .76-.75V.75a.75.75 0 0 0-.76-.75H.76A.75.75 0 0 0 0 .75V14.2c0 .42.34.75.76.75h16.3z"/><path fill="#C03A2B" d="M15 7.5a4 4 0 0 0-8 0 4 4 0 1 0 8 0h-4 4z"/><path fill="#285680" d="M7.06 6.8c.13 1 .3 2.12 1.88 2.24.58.03 1.73-.14 2.12-1.72.51-1.52 2.06-1.96 3.12-1.14.6.39.76 1 .8 1.46a3.92 3.92 0 0 1-2 3.33 4.1 4.1 0 0 1-4.55-.37 4.12 4.12 0 0 1-1.37-3.8z"/><path fill="#2C2F38" d="m4.44 1.98.87.5-1.5 2.6-.87-.5zM5.5 3.17l.87.5-1 1.73-.87-.5zm12.07-1.19-.87.5 1.5 2.6.87-.5zm-1.05 1.19-.87.5 1 1.73.87-.5zM4.44 13.05l.87-.5-1.5-2.6-.87.5zm1.05-1.19.87-.5-1-1.73-.87.5zm12.08 1.19-.87-.5 1.5-2.6.87.5zm-1.05-1.19-.87-.5 1-1.73.87.5z"/></g></svg><svg id="flags--flag-mx" width="22" height="15" y="94" viewBox="0 0 22 15"><g fill="none" fill-rule="evenodd" transform="translate(0 .02)"><path fill="#C03A2B" fill-rule="nonzero" d="M17.07 14.96h4.17a.75.75 0 0 0 .76-.75V.75a.75.75 0 0 0-.76-.75H.76A.75.75 0 0 0 0 .75V14.2c0 .42.34.75.76.75h16.3z"/><path fill="#4C8056" fill-rule="nonzero" d="M6.83 0v14.96H.76a.76.76 0 0 1-.76-.75V.75A.76.76 0 0 1 .76 0h6.07z"/><path fill="#E6E7E8" fill-rule="nonzero" d="M6.83 0h8.34v14.96H6.83z"/><circle cx="11" cy="7" r="2" fill="#C03A2B"/><path stroke="#4C8056" stroke-linecap="round" d="M8.12 8a3.08 3.08 0 0 0 5.76.01"/></g></svg><svg id="flags--flag-pl" width="22" height="15" x="22" y="94" viewBox="0 0 22 15"><defs><path id="a" d="M17.07 14.96h4.17a.75.75 0 0 0 .76-.75V.75a.75.75 0 0 0-.76-.75H.76A.75.75 0 0 0 0 .75V14.2c0 .42.34.75.76.75h16.3z"/></defs><g fill="none" fill-rule="evenodd" transform="translate(0 .02)"><mask id="b" fill="#fff"><use xlink:href="#a"/></mask><use xlink:href="#a" fill="#C03A2B" fill-rule="nonzero"/><path fill="#E6E7E8" fill-rule="nonzero" d="M-.83-.52h24v8h-24z" mask="url(#b)"/></g></svg><svg id="flags--flag-pt" width="22" height="15" x="44" y="94" viewBox="0 0 22 15"><g fill="none" fill-rule="evenodd"><path fill="#C03A2B" fill-rule="nonzero" d="M21.24 14.98a.75.75 0 0 0 .76-.75V.77a.75.75 0 0 0-.76-.75H.76A.75.75 0 0 0 0 .77v13.46c0 .42.34.75.76.75h20.48z"/><path fill="#4C8056" fill-rule="nonzero" d="M8 .02v14.96H.89c-.5 0-.89-.33-.89-.75V.77C0 .35.4.02.89.02H8z"/><g transform="translate(4.5 4.02)"><circle cx="3.5" cy="3.5" r="3.5" fill="#F0C419"/><circle cx="3.5" cy="3.5" r="2.5" fill="#C03A2B"/></g></g></svg><svg id="flags--flag-ru" width="22" height="15" x="66" y="94" viewBox="0 0 22 15"><g fill="none"><path fill="#E6E7E8" d="M17.07 14.98h4.17a.75.75 0 0 0 .76-.75V.77a.75.75 0 0 0-.76-.75H.76A.75.75 0 0 0 0 .77v13.46c0 .42.34.75.76.75h16.3z"/><path fill="#C03A2B" d="M22 10.12v4.11a.76.76 0 0 1-.76.75H.76a.76.76 0 0 1-.76-.75v-4.11h22z"/><path fill="#285680" d="M0 4.88h22v5.24H0z"/></g></svg><svg id="flags--flag-sw" width="22" height="15" x="66" y="124" viewBox="0 0 22 15"><g fill="none"><path fill="#285680" d="M21.24 14.98a.75.75 0 0 0 .76-.75V.77a.75.75 0 0 0-.76-.75H.76A.75.75 0 0 0 0 .77v13.46c0 .42.34.75.76.75h20.48z"/><path fill="#F0C419" d="M7.2 14.98V8.62H22V6.38H7.2V.02H4.94v6.36H0v2.24h4.93v6.36z"/></g></svg><svg id="flags--flag-th" width="22" height="15" x="22" y="109" viewBox="0 0 22 15"><defs><path id="a" d="M17.07 14.96h4.17a.75.75 0 0 0 .76-.75V.75a.75.75 0 0 0-.76-.75H.76A.75.75 0 0 0 0 .75V14.2c0 .42.34.75.76.75h16.3z"/></defs><g fill="none" fill-rule="evenodd"><mask id="b" fill="#fff"><use xlink:href="#a"/></mask><use xlink:href="#a" fill="#E6E7E8" fill-rule="nonzero"/><path fill="#285680" d="M0 5h22v5H0z" mask="url(#b)"/><path fill="#C03A2B" d="M0 0h22v3H0zm0 12h22v3H0z" mask="url(#b)"/></g></svg><svg id="flags--flag-tr" width="22" height="15" x="120" y="15" viewBox="0 0 22 15"><defs><path id="a" d="M17.07 14.96h4.17a.75.75 0 0 0 .76-.75V.75a.75.75 0 0 0-.76-.75H.76A.75.75 0 0 0 0 .75V14.2c0 .42.34.75.76.75h16.3z"/></defs><g fill="none" fill-rule="evenodd" transform="translate(0 .02)"><mask id="b" fill="#fff"><use xlink:href="#a"/></mask><use xlink:href="#a" fill="#C03A2B" fill-rule="nonzero"/><path fill="#D8D8D8" d="M7.5 2.98c1.7 0 3.17.94 3.94 2.32a3.5 3.5 0 1 0 0 4.36A4.5 4.5 0 1 1 7.5 2.98z" mask="url(#b)"/><path fill="#D8D8D8" fill-rule="nonzero" d="m13.87 4.98.67 1.34 1.5.21-1.1 1.04.27 1.47-1.34-.7-1.34.7.26-1.47-1.09-1.04 1.5-.21z" mask="url(#b)" transform="rotate(-22 13.87 7.01)"/></g></svg><svg id="flags--flag-vi" width="22" height="15" x="120" y="30" viewBox="0 0 22 15"><g fill="none"><path fill="#C03A2B" d="M17.07 14.96h4.17a.75.75 0 0 0 .76-.75V.75a.75.75 0 0 0-.76-.75H.76A.75.75 0 0 0 0 .75V14.2c0 .42.34.75.76.75h16.3z"/><path fill="#F3D55B" d="m11.2 3 1.31 2.63 2.95.43-2.13 2.05.5 2.89-2.63-1.37L8.56 11l.5-2.9-2.13-2.04 2.95-.43z"/></g></svg><svg id="flags--flag-zh" width="22" height="15" x="120" y="45" viewBox="0 0 22 15"><g fill="none"><path fill="#C03A2B" d="M17.07 14.98h4.17a.75.75 0 0 0 .76-.75V.77a.75.75 0 0 0-.76-.75H.76A.75.75 0 0 0 0 .77v13.46c0 .42.34.75.76.75h16.3z"/><path fill="#F3D55B" d="m3.68 2.64.67 1.33 1.5.22-1.09 1.04.26 1.47L3.68 6l-1.34.7.26-1.47-1.08-1.04 1.5-.22zm2.95-1.28.53.18.45-.33-.01.55.45.31-.53.17-.16.52-.33-.45-.55.01.33-.44zm0 6.6.53.19.45-.33-.01.55.45.31-.53.17-.16.52-.33-.45h-.55l.33-.43zM8.5 3.49l.53.18.44-.33v.55l.45.31-.53.17-.17.52-.32-.45-.56.01.34-.44zm0 2.68.53.17.44-.33v.55l.45.32-.53.16-.17.53-.32-.45h-.56l.34-.43z"/></g></svg><svg id="icons--icon-checkbox-checked" width="25" height="25" x="75" y="29" viewBox="0 0 25 25"><g fill="none"><rect width="24" height="24" x=".5" y=".5" fill="#0072e3" stroke="#0072e3" rx="4"/><path fill="#FFF" d="M10.88 14.99 17.87 8l1.2 1.2-8.21 8.21-1.2-1.2.01-.02L6.48 13l1.2-1.2 3.2 3.2z"/></g></svg><svg id="icons--icon-checkbox-unchecked" width="25" height="25" y="69" viewBox="0 0 25 25"><rect width="24" height="24" x=".5" y=".5" fill="none" stroke="#E2E7ED" rx="4"/></svg><svg id="icons--icon-close" width="16" height="16" y="124" viewBox="0 0 16 16"><path fill="#344861" fill-rule="evenodd" d="M6.9 8 .37 1.48l1.1-1.1L8 6.89 14.52.38l1.1 1.1L9.11 8l6.51 6.52-1.1 1.1L8 9.11l-6.52 6.51-1.1-1.1L6.89 8z"/></svg><svg xmlns="http://www.w3.org/2000/svg" id="icons--icon-dropdown" width="9" height="6" x="75" y="55" viewBox="0 0 9 6"><path fill="#94A3B7" fill-rule="evenodd" d="M4.5 3.47 7.75.2A.73.73 0 1 1 8.8 1.25L5.15 4.88a.73.73 0 0 1-.72.37.73.73 0 0 1-.57-.35L.2 1.25A.73.73 0 1 1 1.25.22L4.5 3.47z"/></svg><svg xmlns="http://www.w3.org/2000/svg" id="icons--icon-facebook" width="35" height="35" x="40" y="29" viewBox="0 0 35 35"><g fill="none" fill-rule="evenodd"><rect width="35" height="35" fill="#556FC6" rx="17.5"/><path fill="#FFF" fill-rule="nonzero" d="M13.28 18.62h1.94v7.3c0 .14.12.26.28.26h3.28c.16 0 .28-.11.28-.26v-7.27h2.23c.14 0 .26-.1.28-.23l.34-2.69a.25.25 0 0 0-.07-.2.3.3 0 0 0-.21-.09h-2.56v-1.68c0-.51.3-.77.88-.77h1.68c.15 0 .28-.12.28-.26v-2.47c0-.14-.13-.26-.28-.26h-2.41c-.4 0-1.8.07-2.9 1a2.64 2.64 0 0 0-1 2.47v1.97h-2.04c-.15 0-.28.12-.28.26v2.66c0 .14.13.26.28.26z"/></g></svg><svg id="icons--icon-menu" width="20" height="12" x="100" y="29" viewBox="0 0 20 12"><path fill="#344861" fill-rule="evenodd" d="M0 0h20v1.56H0V0zm0 5.22h20v1.56H0V5.22zm0 5.21h20V12H0v-1.56z"/></svg><svg xmlns="http://www.w3.org/2000/svg" id="icons--icon-paginator-nav" width="40" height="40" y="29" viewBox="0 0 40 40"><g fill="none" fill-rule="evenodd"><circle cx="20" cy="20" r="20" fill="#FFF"/><path fill="#6E7C8C" d="m22.39 21.55-5.19 5.18-1.2-1.2 5.19-5.19-5.15-5.14 1.2-1.2 6.37 6.36-1.2 1.2-.02-.01z"/></g></svg><svg xmlns="http://www.w3.org/2000/svg" id="icons--icon-post-nav" width="8" height="13" x="100" y="42" viewBox="0 0 8 13"><path fill="#4A90E2" fill-rule="evenodd" d="m.3 6.37 6.36 6.37L8 11.39 2.97 6.36l5.02-5.02L6.65 0 .29 6.36v.01z"/></svg><svg xmlns="http://www.w3.org/2000/svg" id="icons--icon-star" width="12" height="12" x="85" y="55" viewBox="0 0 12 12"><g fill="none" fill-rule="evenodd"><path d="M-984-157H216v2196H-984z"/><path fill="#F19A37" d="M3.69 7.33-.03 4.77l4.5.06L5.97 0 7.6 4.87l4.42.05-3.55 2.36 1.59 4.42-.24-.16.07.23.02.04-3.93-2.8L2.23 12l1.46-4.67z"/></g></svg><svg id="icons--icon-star-half" width="12" height="12" x="45" y="110" viewBox="0 0 12 12"><g fill="none" fill-rule="evenodd"><path fill="#CCD5E1" d="M3.69 7.33-.03 4.77l4.5.06L5.97 0 7.6 4.87l4.42.05-3.55 2.36 1.59 4.42-.24-.16.07.23.02.04-3.93-2.8L2.23 12l1.46-4.67z"/><path fill="#F19A37" d="m2.21 12 1.46-4.67-3.74-2.56 4.51.05L5.96 0v9.02z"/></g></svg><svg xmlns="http://www.w3.org/2000/svg" id="icons--logo-easybrain" width="120" height="29" viewBox="0 0 120 29"><g fill="none" fill-rule="evenodd"><path fill="#FFF" d="M13.2 22.54H.25V1.07H13.2v1.85H2.27v7.72h10.38v1.81H2.27v8.24H13.2v1.85m2.35-4.46c0-2.74 2.06-4.33 5.9-4.6l4.92-.33v-1.37c0-2.33-1.47-3.69-4.06-3.69-2.23 0-3.8 1.15-4.15 3.05h-1.9c.17-2.8 2.7-4.8 6.06-4.8 3.68 0 6.01 2.05 6.01 5.28v10.92h-1.87v-3.07h-.05c-.86 1.95-3.03 3.25-5.49 3.25-3.2 0-5.37-1.88-5.37-4.65zm10.82-1.57v-1.77l-4.69.33c-2.69.18-4.12 1.22-4.12 3.02 0 1.73 1.52 2.9 3.75 2.9 2.87 0 5.06-1.95 5.06-4.48zm10.5-10.17c3.25 0 5.6 1.93 5.76 4.68h-1.89C40.54 9.21 39.07 8 36.81 8c-2.14 0-3.75 1.1-3.75 2.73 0 1.3.96 2.06 3 2.57l2.45.6c3.21.8 4.43 1.96 4.43 4.24 0 2.7-2.57 4.58-6.17 4.58-3.44 0-5.9-1.97-6.13-4.69h2c.23 1.83 1.82 3.04 4.25 3.04 2.4 0 4.06-1.1 4.06-2.8 0-1.35-.82-2.1-3-2.63l-2.7-.69c-2.77-.7-4.13-2-4.13-4.12 0-2.65 2.45-4.5 5.75-4.5M45.57 28v-1.68c.24.06.63.1.96.1 1.46 0 2.26-.76 2.97-2.78l.36-1-6.02-16.12h2.1l4.92 14.03h.04l4.93-14.03h2.08l-6.25 16.8c-1.4 3.76-2.51 4.8-5.12 4.8a4.82 4.82 0 0 1-.98-.12M62 19.15h-.04v3.39h-1.88V.14h1.96V9.8h.05a5.76 5.76 0 0 1 5.5-3.46c4.02 0 6.77 3.29 6.77 8.18 0 4.91-2.75 8.2-6.8 8.2A5.8 5.8 0 0 1 62 19.15zm.03-4.62c0 3.78 2.13 6.42 5.2 6.42 3.07 0 5.12-2.56 5.12-6.43 0-3.85-2.05-6.43-5.11-6.43-3.08 0-5.21 2.65-5.21 6.45zm14.73-8.01h1.84v2.84h.06a4.02 4.02 0 0 1 4.07-3.02c.41 0 .93.09 1.18.16v1.96c-.25-.11-.9-.23-1.45-.23-2.28 0-3.74 1.78-3.74 4.37v9.94h-1.96V6.52m8.08 11.55c0-2.73 2.05-4.32 5.89-4.6l4.92-.32v-1.37c0-2.33-1.47-3.69-4.06-3.69-2.23 0-3.8 1.15-4.15 3.05h-1.89c.17-2.8 2.7-4.8 6.06-4.8 3.67 0 6 2.05 6 5.28v10.92h-1.87v-3.07h-.04c-.86 1.95-3.04 3.25-5.5 3.25-3.19 0-5.36-1.88-5.36-4.65zm10.81-1.56v-1.77l-4.68.33c-2.7.18-4.12 1.22-4.12 3.02 0 1.73 1.51 2.9 3.75 2.9 2.87 0 5.05-1.95 5.05-4.48zm5.57 6.03h1.96V6.52h-1.96zm5.65-16.02h1.84V9.5h.06c.9-2 2.8-3.17 5.39-3.17 3.53 0 5.79 2.26 5.79 5.89v10.3h-1.97v-9.99c0-2.83-1.65-4.45-4.37-4.45-2.86 0-4.78 2.04-4.78 5.03v9.42h-1.96V6.52"/><path fill="#B2FF59" d="M100.8 3.75a1.87 1.87 0 1 0 2.64-2.65 1.87 1.87 0 0 0-2.64 2.65"/></g></svg><svg id="icon-star-ios-half" width="8" height="8" x="30" y="125" viewBox="0 0 8 8"><path fill="#F19A37" d="m3.08 3.22 1-3.23 1.08 3.23h3L5.75 4.87l.96 3.02-2.63-1.86-2.5 2 .96-3.1L0 3.22h3.08zm1-1.54v3.7L5.77 6.6l-.62-1.96 1.44-.93H4.8l-.72-2.03z"/></svg><svg id="icon-star-ios" width="8" height="8" x="20" y="125" viewBox="0 0 8 8"><path fill="#F19A37" fill-rule="evenodd" d="m2.46 4.89-2.48-1.7 3 .03 1-3.22 1.08 3.24 2.96.04-2.37 1.57L6.7 7.8l-.17-.1.06.15v.02L4 6.01 1.49 8l.97-3.11z"/></svg></svg>